<svg width="330" height="80" viewBox="0 0 330 80" preserveAspectRatio="none" fill="none" xmlns="http://www.w3.org/2000/svg">
<path fill-rule="evenodd" clip-rule="evenodd" d="M159.797 60.5502C165.534 61.8466 171.631 62.7536 178.221 63.1767C208.94 65.1492 233.733 56.6838 260.68 47.483C282.33 40.091 305.37 32.2243 333.99 28.9144L336 16.3018C260.81 7.08865 233.373 23.1672 205.362 39.5825C192.037 47.3908 178.583 55.2753 159.797 60.5502Z" fill="#BDA8FF"/>
<path d="M0 80L331.948 79.9998V29.1594C268.976 36.9871 233.03 66.6959 178.221 63.1767C112.951 58.9858 95.9516 7.31934 0.000104656 0L0 80Z" fill="#925CF3"/>
<path d="M203.54 40.6496C166.339 36.8525 141.531 39.6251 122.334 45.4666C133.94 51.8989 145.792 57.3851 159.797 60.5502C177.727 55.5155 190.801 48.1036 203.54 40.6496Z" fill="#D5C8FF"/>
</svg>
